<?xml version="1.0" standalone="no"?>
<!DOCTYPE svg PUBLIC "-//W3C//DTD SVG 20010904//EN"
 "http://www.w3.org/TR/2001/REC-SVG-20010904/DTD/svg10.dtd">
<svg version="1.0" xmlns="http://www.w3.org/2000/svg"
 width="539.000000pt" height="459.000000pt" viewBox="0 0 539.000000 459.000000"
 preserveAspectRatio="xMidYMid meet">

<g transform="translate(0.000000,459.000000) scale(0.100000,-0.100000)"
fill="#000000" stroke="none">
<path d="M0 3410 c0 -1159 0 -1181 19 -1170 39 20 186 179 265 285 119 160
327 468 375 557 23 42 55 91 72 110 74 83 142 172 214 278 83 124 239 427 298
581 20 52 50 116 66 141 25 39 36 47 77 56 106 23 225 43 354 57 175 20 198
27 301 86 48 27 89 49 93 49 5 0 200 115 236 139 10 7 -361 11 -1177 11
l-1193 0 0 -1180z"/>
<path d="M2451 4543 c-26 -55 -57 -79 -191 -147 -52 -27 -108 -57 -125 -66
-16 -10 -49 -23 -72 -29 -49 -13 -80 -42 -92 -86 -6 -23 -12 -29 -29 -27 -29
4 -75 -22 -104 -57 -21 -27 -29 -30 -88 -32 -36 -1 -69 -4 -75 -8 -5 -3 -14
-6 -20 -6 -12 0 -35 -44 -35 -70 0 -11 -4 -27 -10 -35 -7 -12 -10 -11 -16 5
-11 28 -55 65 -79 65 -27 0 -41 -11 -49 -37 -4 -13 -10 -22 -14 -22 -20 3 -32
-3 -32 -16 0 -8 -5 -15 -11 -15 -5 0 -7 -5 -3 -11 4 -8 0 -9 -15 -4 -11 3 -21
5 -21 2 0 -2 14 -32 32 -67 26 -53 33 -60 39 -44 7 18 8 18 8 0 1 -13 6 -17
19 -13 58 16 75 12 67 -15 -10 -35 -51 -66 -93 -73 -20 -3 -50 -10 -67 -16
-71 -25 -84 -27 -80 -16 2 7 6 32 9 55 3 24 26 118 52 208 25 90 44 171 42
181 -3 14 -12 17 -38 15 -38 -3 -43 -8 -66 -72 -9 -25 -27 -65 -39 -90 -13
-25 -35 -74 -50 -110 -15 -36 -38 -90 -52 -120 -14 -30 -42 -93 -63 -140 -119
-266 -167 -354 -221 -405 -50 -46 -108 -120 -109 -137 0 -13 18 -9 33 7 8 7
28 17 43 21 16 4 47 19 69 34 68 47 187 163 202 197 7 18 24 40 37 49 14 8 57
67 96 130 66 106 111 156 127 140 3 -3 -1 -14 -9 -23 -9 -10 -25 -36 -36 -58
-11 -22 -29 -49 -41 -59 -12 -11 -21 -24 -21 -29 0 -20 -153 -311 -211 -401
-32 -51 -59 -97 -59 -101 0 -4 -11 -22 -23 -39 -13 -17 -27 -44 -31 -59 -3
-15 -14 -31 -24 -34 -33 -13 -102 -88 -102 -112 0 -26 -54 -83 -180 -192 -41
-35 -80 -68 -86 -74 -6 -5 -26 -21 -44 -35 -19 -14 -68 -53 -109 -88 -42 -35
-83 -69 -91 -75 -8 -7 -40 -35 -71 -62 -85 -76 -175 -154 -204 -176 l-25 -20
0 -1015 0 -1014 1579 0 1579 0 6 31 c3 17 6 44 6 58 0 15 7 36 15 47 13 17 14
12 15 -58 l0 -78 1095 0 1095 0 0 1133 c0 923 -2 1134 -13 1134 -16 0 -20 -37
-5 -54 8 -10 5 -13 -13 -14 -22 0 -22 -1 -5 -8 14 -5 16 -10 8 -15 -7 -4 -9
-12 -6 -18 4 -6 0 -6 -13 1 -11 6 -24 7 -28 3 -4 -4 -5 4 -1 18 15 49 24 105
20 112 -3 5 1 8 8 8 9 0 10 3 2 8 -7 4 -13 62 -17 147 -4 105 -12 164 -32 235
-33 124 -72 237 -96 278 -10 18 -19 40 -19 48 0 8 -4 13 -9 9 -5 -3 -12 -1
-16 4 -3 6 6 8 22 6 27 -4 27 -4 5 7 -13 6 -21 17 -18 25 4 9 -1 12 -19 9 -14
-3 -27 0 -31 5 -12 20 -111 86 -146 98 -33 11 -39 21 -28 51 5 11 7 27 9 55 1
21 4 26 10 17 7 -11 9 -11 14 2 4 9 2 16 -3 16 -6 0 -10 4 -10 10 0 5 7 7 15
4 8 -4 15 -1 15 5 0 6 -5 11 -11 11 -6 0 -3 7 5 16 9 8 21 12 27 8 8 -5 9 -3
4 6 -6 10 -3 12 13 8 12 -4 22 -3 22 1 0 4 21 8 46 8 26 1 50 7 54 13 4 6 14
8 23 4 10 -3 17 -1 17 6 0 6 3 9 8 7 14 -9 53 13 46 25 -6 10 -4 11 7 1 16
-15 43 -17 34 -3 -3 6 1 10 10 10 10 0 14 -5 10 -12 -4 -7 -1 -6 7 2 7 8 19
15 26 16 6 1 21 2 32 3 15 1 20 8 20 31 0 27 -3 30 -30 30 -16 0 -30 5 -30 10
0 7 -6 7 -19 0 -26 -13 -34 -13 -28 3 3 8 -7 12 -29 13 -18 0 -30 -4 -27 -9 3
-5 -4 -6 -18 -1 -29 10 -58 10 -81 0 -12 -5 -18 -4 -18 4 0 6 5 8 12 4 7 -4 8
-3 4 4 -10 16 -26 15 -26 -2 0 -8 -7 -13 -15 -12 -21 3 -31 16 -13 16 9 0 18
7 22 15 7 20 -1 19 -26 -5 -12 -11 -27 -20 -32 -19 -6 0 -5 3 2 6 9 3 7 10 -9
24 -21 18 -21 19 -4 45 11 17 12 24 4 19 -8 -5 -5 1 5 13 16 18 22 20 35 10 9
-7 7 -2 -4 11 l-20 24 23 -12 c18 -10 22 -9 22 3 0 18 36 40 50 31 15 -9 1
-26 -17 -23 -9 2 -17 -5 -18 -14 -2 -11 3 -16 16 -15 10 1 19 6 19 12 0 23 22
34 49 24 26 -10 26 -10 6 9 -11 11 -23 18 -27 16 -4 -3 -9 -1 -11 4 -3 4 26 7
64 7 67 0 69 1 70 25 1 14 0 31 -1 39 -1 11 2 10 15 -3 21 -20 21 -20 20 7 -1
36 -15 67 -31 67 -8 0 -14 6 -14 14 0 8 -4 17 -9 20 -4 3 -6 -7 -5 -22 2 -15
1 -21 -2 -14 -5 10 -9 10 -22 0 -9 -8 -13 -8 -9 -2 4 7 0 14 -8 18 -8 3 -17 1
-20 -4 -3 -5 -12 -7 -20 -4 -7 3 -23 1 -34 -6 -15 -8 -21 -8 -21 0 0 6 -5 8
-12 3 -24 -14 -36 -11 -33 7 2 12 -1 17 -9 14 -8 -3 -16 2 -19 10 -4 9 -14 16
-23 16 -10 0 -15 3 -11 6 16 16 -26 36 -98 46 -11 2 -23 7 -26 12 -4 5 -12 -2
-19 -14 -11 -20 -10 -22 4 -17 10 4 14 3 11 -2 -3 -6 -19 -9 -35 -9 -27 1 -28
2 -12 15 16 12 16 13 0 7 -17 -6 -23 4 -19 34 1 6 -2 12 -7 12 -14 0 -25 51
-13 63 5 5 7 16 4 23 -3 8 0 14 6 14 6 0 11 5 11 10 0 6 -8 10 -17 10 -10 0
-14 4 -8 8 14 10 17 32 9 51 -9 21 -11 28 -13 47 0 8 -6 12 -12 9 -6 -4 -13 2
-16 13 -3 11 -12 23 -20 26 -8 3 -11 1 -8 -4 3 -6 1 -10 -4 -10 -6 0 -11 5
-11 10 0 6 -7 10 -16 10 -14 0 -15 -2 -3 -17 10 -12 4 -10 -18 5 -17 12 -37
22 -45 22 -11 0 -11 2 1 9 11 7 11 9 0 13 -14 5 -20 59 -7 68 4 3 1 19 -8 35
-8 15 -13 33 -11 39 2 6 0 23 -4 39 -4 15 -4 27 2 27 5 0 9 11 9 25 l0 25
-1078 0 -1079 0 -22 -47z m71 -13 l27 -39 -27 4 c-15 2 -29 4 -32 4 -3 1 -5
17 -5 36 0 19 2 35 5 35 3 -1 17 -18 32 -40z m71 -93 c20 -24 58 -61 86 -82
31 -24 47 -43 44 -52 -3 -8 7 -28 23 -44 30 -32 106 -81 120 -78 5 1 16 0 24
-2 8 -1 -16 -5 -55 -9 -45 -4 14 -7 161 -8 l231 -2 24 -26 24 -26 -255 4
c-220 3 -260 6 -288 21 -18 10 -31 21 -28 25 2 4 -4 18 -13 31 -14 18 -16 33
-11 62 8 44 6 49 -29 50 -25 1 -25 2 4 9 28 7 28 8 5 9 -19 1 -30 12 -44 43
-10 22 -30 50 -42 61 -13 11 -24 26 -24 33 0 7 -12 15 -27 17 -27 4 -27 4 3 6
26 1 38 -7 67 -42z m-413 -117 c11 -7 7 -10 -18 -10 -20 0 -31 4 -27 10 8 13
26 13 45 0z m497 -36 c-3 -3 -12 -4 -19 -1 -8 3 -5 6 6 6 11 1 17 -2 13 -5z
m173 -44 c45 -24 50 -29 30 -30 -22 0 -100 43 -100 55 0 9 16 4 70 -25z m-768
-149 c27 -42 29 -52 24 -106 -2 -33 -9 -71 -15 -85 -7 -19 -10 -4 -10 70 l-1
94 -47 48 -48 49 34 -12 c22 -8 43 -27 63 -58z m543 -21 c-3 -5 -11 -10 -16
-10 -6 0 -7 5 -4 10 3 6 11 10 16 10 6 0 7 -4 4 -10z m292 -52 c-3 -7 -5 -2
-5 12 0 14 2 19 5 13 2 -7 2 -19 0 -25z m613 -110 c17 -12 30 -25 30 -30 0 -4
-110 -8 -244 -8 -237 0 -244 1 -272 23 l-29 22 230 5 c127 3 236 7 243 8 7 1
26 -8 42 -20z m1510 -218 c0 -5 -8 -10 -17 -10 -15 0 -16 2 -3 10 19 12 20 12
20 0z m-1412 -451 c-29 -27 -53 -55 -53 -62 -1 -15 21 -31 62 -45 l31 -10 37
68 c32 63 55 93 55 74 0 -4 -16 -36 -35 -71 -35 -64 -37 -83 -9 -83 17 0 18
-11 2 -45 -13 -29 -32 -31 -98 -11 -43 13 -48 21 -38 56 3 8 3 12 1 8 -2 -4
-12 -4 -21 -1 -14 6 -15 4 -5 -9 18 -21 6 -29 -23 -16 -27 12 -31 33 -10 45
22 12 8 61 -23 78 -18 10 -21 14 -9 15 9 0 20 -5 24 -11 3 -6 14 2 25 20 10
17 25 31 33 31 8 0 16 6 19 13 3 8 19 11 46 9 l42 -4 -53 -49z m202 7 c0 -3
-4 -8 -10 -11 -5 -3 -10 -1 -10 4 0 6 5 11 10 11 6 0 10 -2 10 -4z m103 -56
c9 0 17 -5 17 -10 0 -17 -31 -24 -42 -9 -7 11 -11 11 -15 2 -2 -7 -12 -13 -21
-13 -14 0 -12 4 6 18 19 14 20 20 10 32 -7 8 -4 7 8 -3 11 -9 28 -17 37 -17z
m-88 -38 c-6 -7 -35 18 -35 31 0 5 9 2 20 -8 11 -10 18 -20 15 -23z m148 -21
c-2 -6 2 -11 7 -11 6 0 10 -5 10 -11 0 -18 -23 -4 -32 20 -6 16 -5 21 5 18 6
-2 11 -10 10 -16z m-123 -11 c0 -5 -9 -10 -20 -10 -11 0 -20 5 -20 10 0 6 9
10 20 10 11 0 20 -4 20 -10z m130 -30 c20 -6 22 -9 9 -14 -15 -7 -69 8 -69 19
0 7 29 5 60 -5z m414 -172 c19 -35 46 -88 59 -118 l25 -55 -27 0 c-37 0 -66
39 -62 85 3 44 -25 82 -82 112 -41 21 -41 22 -17 29 58 17 67 12 104 -53z
m-444 -297 c-5 -11 -10 -35 -11 -53 l-1 -33 -10 28 c-8 21 -6 33 6 52 19 30
31 33 16 6z m32 -31 c-2 -16 -8 -28 -12 -25 -9 6 -8 24 3 43 12 18 14 15 9
-18z m896 -301 c17 -6 33 -17 36 -25 7 -18 4 -18 -38 7 -51 30 -50 36 2 18z
m74 -299 c-7 -18 -9 -8 -9 41 -1 86 11 122 15 44 2 -34 -1 -72 -6 -85z m88 78
c0 -5 5 -8 11 -8 5 0 8 4 5 9 -6 9 48 -5 124 -34 25 -9 64 -22 88 -28 23 -5
42 -16 42 -24 0 -7 9 -22 20 -33 22 -22 26 -68 10 -135 -5 -22 -12 -60 -15
-85 -4 -25 -13 -70 -21 -100 -8 -30 -14 -72 -14 -94 0 -40 -22 -76 -47 -76 -7
0 -13 1 -13 3 0 34 -37 156 -55 183 -29 42 -30 53 -11 68 13 10 38 187 29 211
-2 6 -28 24 -59 40 -30 17 -63 38 -71 48 -9 9 -27 17 -40 17 -20 0 -23 5 -23
35 0 33 1 34 20 23 11 -7 20 -16 20 -20z m-104 -154 c-4 -20 -10 -34 -12 -31
-3 3 -2 21 2 41 3 21 9 35 11 32 3 -3 2 -21 -1 -42z m-36 -154 c0 -5 -2 -10
-4 -10 -3 0 -8 5 -11 10 -3 6 -1 10 4 10 6 0 11 -4 11 -10z m-12 -51 c-3 -20
-5 -19 -9 9 -3 20 -2 29 4 23 5 -5 7 -19 5 -32z m-59 -191 c-4 -16 -22 -54
-38 -85 -17 -31 -31 -64 -31 -72 0 -13 -2 -13 -9 -2 -5 7 -13 11 -19 7 -18
-11 -25 14 -9 32 19 20 77 142 77 160 0 9 4 10 19 0 15 -9 17 -17 10 -40z
m356 -98 c3 -5 1 -10 -4 -10 -6 0 -11 5 -11 10 0 6 2 10 4 10 3 0 8 -4 11 -10z
m29 -6 c3 -8 2 -12 -4 -9 -6 3 -10 10 -10 16 0 14 7 11 14 -7z m56 -4 c0 -5
-2 -10 -4 -10 -3 0 -8 5 -11 10 -3 6 -1 10 4 10 6 0 11 -4 11 -10z m-14 -49
c-18 -20 -20 -37 -6 -46 5 -3 7 0 4 8 -3 8 0 18 6 22 7 4 9 -2 5 -22 -4 -15
-8 -37 -9 -48 -2 -11 -4 -20 -5 -20 -3 0 -8 -21 -14 -52 -3 -11 -13 -18 -28
-18 -13 0 -23 -5 -22 -12 2 -7 4 -41 6 -77 2 -52 0 -67 -12 -72 -13 -5 -12 -8
7 -15 19 -7 22 -16 23 -61 0 -29 3 -66 5 -83 5 -28 5 -29 -14 -12 -42 39 -110
14 -160 -59 l-22 -32 34 -30 c19 -16 39 -39 45 -50 10 -19 8 -20 -45 -17 -52
2 -81 -9 -52 -20 8 -3 15 -15 15 -27 1 -12 7 -24 14 -28 21 -14 -2 -30 -42
-30 -25 0 -39 -5 -39 -13 0 -11 -74 -51 -156 -83 -32 -12 -139 -1 -158 17 -6
5 -17 9 -25 9 -13 -1 -13 -3 2 -14 18 -14 17 -14 -2 -21 -12 -3 -26 -3 -33 0
-7 4 -4 -1 6 -9 18 -15 19 -16 2 -16 -12 0 -16 -5 -12 -16 3 -8 2 -12 -4 -9
-6 4 -7 -6 -4 -25 4 -20 3 -30 -5 -30 -7 0 -31 -9 -53 -20 -23 -11 -54 -20
-69 -20 -15 0 -31 -5 -34 -11 -4 -6 -13 -8 -21 -5 -8 3 -14 1 -14 -4 0 -6 -7
-10 -16 -10 -8 0 -12 5 -9 10 3 6 1 10 -6 10 -7 0 -9 -8 -6 -21 4 -17 3 -19
-6 -10 -6 6 -18 11 -26 11 -13 0 -13 -2 -3 -9 10 -6 6 -10 -15 -14 -15 -3 -30
-4 -32 -2 -7 8 28 35 46 36 13 1 11 3 -7 9 l-25 8 23 7 c14 5 22 15 22 30 0
31 20 85 32 85 5 0 6 5 3 10 -3 6 -1 10 6 10 8 0 8 4 1 13 -7 8 -7 17 2 27 13
17 14 17 176 108 63 35 120 68 126 74 7 5 22 11 34 13 12 2 29 12 38 22 10 10
30 24 45 31 43 18 97 62 97 78 0 8 -18 25 -40 39 -22 14 -40 29 -40 33 0 5 18
33 40 63 39 53 62 96 94 172 l16 39 31 -31 c17 -17 40 -31 51 -31 17 0 70 30
88 50 3 3 22 14 43 24 21 11 37 27 37 37 0 20 27 33 34 16 2 -7 5 -5 5 5 1 9
-4 20 -9 23 -8 5 -8 11 -1 19 7 9 7 16 -1 24 -7 7 -8 12 -2 12 5 0 2 5 -6 10
-13 8 -12 10 3 10 10 0 15 5 12 10 -4 6 -10 8 -15 5 -4 -3 -10 2 -13 10 -4 10
-1 12 10 8 12 -5 14 -3 8 6 -11 19 15 32 38 20 17 -10 17 -12 3 -28z m-1011
-908 c-3 -31 -8 -60 -11 -65 -11 -17 -21 -7 -20 22 1 16 5 30 10 30 5 0 3 6
-3 14 -9 11 -10 20 -1 35 20 39 31 23 25 -36z m405 -17 c0 -2 -7 -7 -16 -10
-8 -3 -12 -2 -9 4 6 10 25 14 25 6z m-380 -140 c0 -3 -4 -8 -10 -11 -5 -3 -10
-1 -10 4 0 6 5 11 10 11 6 0 10 -2 10 -4z"/>
<path d="M2630 4356 c0 -2 8 -10 18 -17 15 -13 16 -12 3 4 -13 16 -21 21 -21
13z"/>
<path d="M3614 3089 c-8 -14 14 -29 43 -29 27 0 40 19 22 31 -20 12 -57 11
-65 -2z"/>
<path d="M5295 1620 c3 -5 8 -10 11 -10 2 0 4 5 4 10 0 6 -5 10 -11 10 -5 0
-7 -4 -4 -10z"/>
<path d="M5250 1375 c0 -9 6 -12 15 -9 8 4 15 7 15 9 0 2 -7 5 -15 9 -9 3 -15
0 -15 -9z"/>
<path d="M5250 1259 c0 -5 5 -7 10 -4 6 3 10 8 10 11 0 2 -4 4 -10 4 -5 0 -10
-5 -10 -11z"/>
<path d="M4510 492 c0 -11 5 -14 33 -16 6 -1 15 -5 18 -10 4 -4 17 -2 30 5 16
8 20 14 10 17 -7 2 -17 -2 -22 -9 -7 -11 -9 -11 -9 2 0 9 -7 16 -15 16 -8 0
-12 -4 -9 -9 8 -12 -10 -10 -24 4 -9 9 -12 9 -12 0z"/>
<path d="M4240 469 c0 -5 5 -7 10 -4 6 3 10 8 10 11 0 2 -4 4 -10 4 -5 0 -10
-5 -10 -11z"/>
<path d="M1880 4283 c-51 -9 -323 -84 -339 -93 -19 -12 49 -3 86 11 13 5 23 6
23 3 0 -4 6 -1 14 5 8 7 20 11 28 10 7 -1 27 3 43 10 17 7 45 14 63 16 18 1
36 6 39 9 3 3 20 -3 37 -14 36 -22 52 -16 51 19 0 27 -7 30 -45 24z"/>
<path d="M5226 3731 c-4 -5 3 -7 14 -4 23 6 26 13 6 13 -8 0 -17 -4 -20 -9z"/>
<path d="M5000 3349 c0 -5 5 -7 10 -4 6 3 10 8 10 11 0 2 -4 4 -10 4 -5 0 -10
-5 -10 -11z"/>
<path d="M5072 3215 c10 -10 49 -14 43 -4 -4 5 -16 9 -27 9 -12 0 -19 -2 -16
-5z"/>
<path d="M5118 3183 c7 -3 16 -2 19 1 4 3 -2 6 -13 5 -11 0 -14 -3 -6 -6z"/>
<path d="M5100 3160 c-9 -6 -10 -10 -3 -10 6 0 15 5 18 10 8 12 4 12 -15 0z"/>
<path d="M5120 3105 c-10 -12 -10 -15 4 -15 9 0 16 7 16 15 0 8 -2 15 -4 15
-2 0 -9 -7 -16 -15z"/>
<path d="M5360 2289 c0 -5 5 -7 10 -4 6 3 10 8 10 11 0 2 -4 4 -10 4 -5 0 -10
-5 -10 -11z"/>
</g>
</svg>
